<?xml version="1.0" encoding="utf-8"?>
<!-- Generator: Adobe Illustrator 24.0.2, SVG Export Plug-In . SVG Version: 6.00 Build 0)  -->
<svg version="1.1" xmlns="http://www.w3.org/2000/svg" xmlns:xlink="http://www.w3.org/1999/xlink" x="0px" y="0px"
	 viewBox="0 0 400 84.87" enable-background="new 0 0 400 84.87" xml:space="preserve">
<symbol  id="Bush_Left" viewBox="-43.3 -24.308 86.601 48.615">
	<g>
		<g>
			<path fill="#009640" d="M-33.888-3.511c8.299,8.895,13.237,21.557,13.237,21.557C-24.14,7.54-28.211,2.316-34.923-6.174
				L-33.888-3.511z"/>
			<path fill="#009640" d="M-30.487,3.161c0.297,2.265,2.377,11.441,2.377,11.441l-2.153-5.593
				c-0.479-2.881,0.761-5.555,0.447-7.952L-30.487,3.161z"/>
			<path fill="#009640" d="M-27.667,8.564c0.297,2.266,1.726,9.829,1.726,9.829l-0.53-3.791c0-2.44-0.211-5.744-0.526-8.142
				L-27.667,8.564z"/>
			<path fill="#009640" d="M-24.188,13.377c0.216,1.381,3.051,6.613,3.051,6.613l-2.181-2.933c0-1.487-0.154-3.501-0.382-4.963
				L-24.188,13.377z"/>
			<path fill="#009640" d="M-21.167,18.075c0.602,1.176,2.76,6.232,2.76,6.232l-1.281-3.51c-0.313-1.289-0.958-3.02-1.595-4.265
				L-21.167,18.075z"/>
			<path fill="#009640" d="M-26.044,10.332c0.297,2.266,1.726,9.828,1.726,9.828l-1.162-4.837c0-2.441,0.42-4.697,0.106-7.095
				L-26.044,10.332z"/>
			<path fill="#009640" d="M-24.522,3.487c1.421,0.866,6.496,3.396,6.496,3.396l-3.35-2.196c-1.774-1.164-5.323-0.626-6.827-1.543
				L-24.522,3.487z"/>
			<path fill="#009640" d="M-21.855,6.884c1.899,1.261,6.128,5.077,6.128,5.077l-3.163-2.14c-2.187-1.069-5.052-2.709-7.062-4.043
				L-21.855,6.884z"/>
			<path fill="#009640" d="M-21.837,13.088c1.036,0.934,3.865,6.169,3.865,6.169l-1.263-3.432c-1.244-0.811-2.842-2.037-3.939-3.025
				L-21.837,13.088z"/>
			<path fill="#009640" d="M-23.271,9.473c1.577,1.009,5.962,5.851,5.962,5.851l-2.632-3.877c-1.816-0.856-3.47-1.16-5.14-2.229
				L-23.271,9.473z"/>
			<path fill="#009640" d="M-32.966,0.366c0.297,2.265,1.6,12.736,1.6,12.736l-1.376-6.888c-0.479-2.881,0.762-5.555,0.447-7.953
				L-32.966,0.366z"/>
			<path fill="#009640" d="M-34.966-1.264c0.297,2.266,1.599,12.736,1.599,12.736l-1.376-6.887
				c-0.479-2.882,0.761-5.556,0.447-7.953L-34.966-1.264z"/>
			<path fill="#009640" d="M-29.402-0.557c1.549,0.605,10.179,4.284,10.179,4.284l-4.82-3.121c-1.949-0.838-5.362-0.453-7.002-1.095
				L-29.402-0.557z"/>
			<path fill="#009640" d="M-29.97-3.318c1.726,0.743,9.727,4.106,9.727,4.106l-5.13-2.746c-2.171-1.049-4.612-0.291-6.44-1.078
				L-29.97-3.318z"/>
		</g>
		<g>
			<path fill="#009640" d="M-41.108-9.821c17.331-2.827,35.766-10.603,35.766-10.603C-18.812-13.763-28.099-11.68-43.3-8.345
				L-41.108-9.821z"/>
			<path fill="#009640" d="M-29.852-13.561c2.399-1.676,13.091-8.003,13.091-8.003l-7.499,3.39
				c-3.163,2.079-4.231,4.895-6.771,6.668L-29.852-13.561z"/>
			<path fill="#009640" d="M-21.787-16.448c2.399-1.676,10.894-7.041,10.894-7.041l-4.051,2.787
				c-2.23,1.975-5.483,4.535-8.022,6.309L-21.787-16.448z"/>
			<path fill="#009640" d="M-13.531-18.509c1.502-1.004,9.426-3.744,9.426-3.744l-5.098,1.225c-1.36,1.204-3.371,2.751-4.96,3.813
				L-13.531-18.509z"/>
			<path fill="#009640" d="M-5.888-20.719c1.742-0.635,8.756-3.589,8.756-3.589l-4.628,2.165c-1.525,0.878-3.821,1.938-5.666,2.609
				L-5.888-20.719z"/>
			<path fill="#009640" d="M-18.371-17.022c2.399-1.676,10.895-7.041,10.895-7.041l-5.708,3.301
				c-2.231,1.975-3.826,4.02-6.366,5.795L-18.371-17.022z"/>
			<path fill="#009640" d="M-22.938-10.686c2.368,0.047,10.308,0.671,10.308,0.671l-5.722,0.014
				c-3.032,0.008-6.476-2.295-8.983-2.345L-22.938-10.686z"/>
			<path fill="#009640" d="M-16.876-12.029c3.258-0.021,11.436-0.882,11.436-0.882l-5.462,0.066
				c-3.403-0.285-8.079-0.468-11.526-0.445L-16.876-12.029z"/>
			<path fill="#009640" d="M-11.188-17.037c2.003-0.21,9.925-2.956,9.925-2.956L-5.8-17.882c-2.12,0.001-5.014,0.151-7.134,0.374
				L-11.188-17.037z"/>
			<path fill="#009640" d="M-16.081-14.868c2.671,0.014,11.958-1.595,11.958-1.595l-6.461,1.751
				c-2.797-0.263-4.908-0.889-7.736-0.902L-16.081-14.868z"/>
			<path fill="#009640" d="M-35.155-12.604c2.399-1.677,13.411-9.46,13.411-9.46l-7.82,4.846c-3.163,2.079-4.23,4.895-6.771,6.668
				L-35.155-12.604z"/>
			<path fill="#009640" d="M-38.862-12.34c2.399-1.676,13.412-9.459,13.412-9.459l-7.819,4.846
				c-3.164,2.079-4.231,4.894-6.771,6.668L-38.862-12.34z"/>
			<path fill="#009640" d="M-32.045-9.982c2.271,0.325,15.205,1.892,15.205,1.892l-8.198-0.013c-2.927-0.348-6.361-2.455-8.766-2.8
				L-32.045-9.982z"/>
			<path fill="#009640" d="M-35.199-8.048C-32.604-7.74-20.658-6.25-20.658-6.25l-8.2-0.479c-3.366-0.294-5.381-2.191-8.127-2.518
				L-35.199-8.048z"/>
		</g>
		<g>
			<path fill="#009640" d="M-20.024-4.793c13.512-1.991,27.731-7.055,27.731-7.055c-10.5,4.69-17.742,6.158-29.593,8.506
				L-20.024-4.793z"/>
			<path fill="#009640" d="M-11.401-7.015c1.871-1.181,10.206-5.637,10.206-5.637l-5.847,2.388C-9.508-8.8-10.341-6.817-12.32-5.568
				L-11.401-7.015z"/>
			<path fill="#009640" d="M-5.113-9.048c1.87-1.18,8.494-4.958,8.494-4.958l-3.158,1.963c-1.739,1.39-4.275,3.192-6.255,4.442
				L-5.113-9.048z"/>
			<path fill="#009640" d="M1.323-10.499c1.17-0.707,7.349-2.637,7.349-2.637l-3.975,0.862c-1.06,0.848-2.627,1.938-3.867,2.686
				L1.323-10.499z"/>
			<path fill="#009640" d="M7.281-12.056c1.358-0.447,6.827-2.527,6.827-2.527L10.5-13.059c-1.189,0.618-2.979,1.365-4.417,1.838
				L7.281-12.056z"/>
			<path fill="#009640" d="M-2.451-9.452c1.871-1.181,8.493-4.959,8.493-4.959l-4.45,2.325c-1.739,1.391-2.982,2.831-4.962,4.08
				L-2.451-9.452z"/>
			<path fill="#009640" d="M-6.011-4.99c1.845,0.033,8.036,0.473,8.036,0.473l-4.46,0.01c-2.364,0.006-5.049-1.616-7.003-1.651
				L-6.011-4.99z"/>
			<path fill="#009640" d="M-1.285-5.937c2.54-0.015,8.916-0.62,8.916-0.62L3.372-6.511c-2.653-0.2-6.298-0.329-8.986-0.313
				L-1.285-5.937z"/>
			<path fill="#009640" d="M3.15-9.463c1.562-0.148,7.737-2.082,7.737-2.082L7.35-10.058c-1.653,0.001-3.909,0.106-5.562,0.263
				L3.15-9.463z"/>
			<path fill="#009640" d="M-0.667-7.936c2.083,0.01,9.324-1.123,9.324-1.123L3.62-7.825C1.439-8.011-0.208-8.451-2.411-8.461
				L-0.667-7.936z"/>
			<path fill="#009640" d="M-15.536-6.342c1.87-1.18,10.456-6.661,10.456-6.661l-6.096,3.413c-2.466,1.463-3.299,3.445-5.278,4.695
				L-15.536-6.342z"/>
			<path fill="#009640" d="M-18.426-6.154c1.87-1.181,10.456-6.662,10.456-6.662l-6.096,3.413c-2.466,1.464-3.299,3.446-5.279,4.695
				L-18.426-6.154z"/>
			<path fill="#009640" d="M-13.112-4.495c1.771,0.229,11.854,1.332,11.854,1.332l-6.392-0.009
				c-2.282-0.245-4.959-1.729-6.834-1.972L-13.112-4.495z"/>
			<path fill="#009640" d="M-15.57-3.133c2.022,0.217,11.336,1.267,11.336,1.267l-6.393-0.338c-2.625-0.207-4.195-1.543-6.336-1.772
				L-15.57-3.133z"/>
		</g>
		<g>
			<path fill="#009640" d="M1.652-2.056c12.235-1.712,25.111-6.067,25.111-6.067C17.255-4.089,10.698-2.826-0.033-0.807L1.652-2.056
				z"/>
			<path fill="#009640" d="M9.46-3.967c1.694-1.015,9.241-4.848,9.241-4.848l-5.293,2.054c-2.233,1.259-2.987,2.964-4.78,4.039
				L9.46-3.967z"/>
			<path fill="#009640" d="M15.154-5.715c1.694-1.016,7.691-4.266,7.691-4.266l-2.859,1.688c-1.575,1.196-3.871,2.747-5.663,3.821
				L15.154-5.715z"/>
			<path fill="#009640" d="M20.982-6.964c1.06-0.607,6.654-2.268,6.654-2.268L24.038-8.49c-0.96,0.729-2.379,1.667-3.501,2.311
				L20.982-6.964z"/>
			<path fill="#009640" d="M26.378-8.303c1.23-0.385,6.182-2.174,6.182-2.174l-3.268,1.312c-1.076,0.532-2.697,1.174-3.999,1.581
				L26.378-8.303z"/>
			<path fill="#009640" d="M17.565-6.063c1.694-1.015,7.691-4.266,7.691-4.266l-4.029,2c-1.575,1.196-2.701,2.436-4.494,3.511
				L17.565-6.063z"/>
			<path fill="#009640" d="M14.342-2.225c1.671,0.028,7.276,0.406,7.276,0.406L17.579-1.81C15.439-1.805,13.007-3.2,11.238-3.23
				L14.342-2.225z"/>
			<path fill="#009640" d="M18.621-3.038c2.3-0.013,8.073-0.534,8.073-0.534l-3.856,0.04c-2.402-0.173-5.703-0.283-8.137-0.271
				L18.621-3.038z"/>
			<path fill="#009640" d="M22.637-6.072c1.414-0.127,7.006-1.791,7.006-1.791L26.44-6.584c-1.496,0.001-3.539,0.092-5.036,0.227
				L22.637-6.072z"/>
			<path fill="#009640" d="M19.182-4.758c1.886,0.008,8.442-0.966,8.442-0.966l-4.561,1.06c-1.975-0.158-3.465-0.538-5.461-0.546
				L19.182-4.758z"/>
			<path fill="#009640" d="M5.717-3.387c1.694-1.016,9.468-5.73,9.468-5.73l-5.52,2.936c-2.233,1.259-2.987,2.964-4.78,4.039
				L5.717-3.387z"/>
			<path fill="#009640" d="M3.1-3.227c1.694-1.015,9.468-5.73,9.468-5.73l-5.52,2.936c-2.233,1.26-2.987,2.965-4.78,4.04L3.1-3.227z
				"/>
			<path fill="#009640" d="M7.912-1.799c1.604,0.197,10.733,1.146,10.733,1.146L12.858-0.66c-2.066-0.211-4.49-1.487-6.188-1.696
				L7.912-1.799z"/>
			<path fill="#009640" d="M5.686-0.627C7.518-0.44,15.951,0.462,15.951,0.462l-5.789-0.29C7.786-0.006,6.364-1.155,4.425-1.353
				L5.686-0.627z"/>
		</g>
		<g>
			<path fill="#009640" d="M14.002,2.836c11.079-1.473,22.738-5.22,22.738-5.22C28.13,1.087,22.192,2.173,12.475,3.91L14.002,2.836z
				"/>
			<path fill="#009640" d="M21.072,1.192c1.534-0.873,8.368-4.171,8.368-4.171l-4.793,1.767c-2.022,1.083-2.705,2.551-4.328,3.475
				L21.072,1.192z"/>
			<path fill="#009640" d="M26.228-0.312c1.534-0.874,6.964-3.67,6.964-3.67l-2.589,1.452c-1.426,1.029-3.505,2.363-5.128,3.288
				L26.228-0.312z"/>
			<path fill="#009640" d="M31.505-1.386c0.96-0.523,6.026-1.951,6.026-1.951l-3.259,0.638c-0.869,0.628-2.154,1.434-3.17,1.987
				L31.505-1.386z"/>
			<path fill="#009640" d="M36.391-2.538c1.114-0.331,5.598-1.87,5.598-1.87l-2.959,1.129c-0.975,0.457-2.442,1.009-3.622,1.359
				L36.391-2.538z"/>
			<path fill="#009640" d="M28.411-0.611c1.534-0.873,6.964-3.669,6.964-3.669l-3.649,1.72c-1.426,1.029-2.446,2.095-4.069,3.02
				L28.411-0.611z"/>
			<path fill="#009640" d="M25.492,2.69c1.513,0.024,6.589,0.35,6.589,0.35l-3.658,0.007c-1.938,0.005-4.14-1.195-5.742-1.222
				L25.492,2.69z"/>
			<path fill="#009640" d="M29.367,1.99c2.083-0.011,7.31-0.459,7.31-0.459l-3.492,0.034c-2.175-0.148-5.164-0.243-7.368-0.232
				L29.367,1.99z"/>
			<path fill="#009640" d="M33.003-0.619c1.28-0.109,6.344-1.54,6.344-1.54l-2.9,1.1c-1.355,0.001-3.205,0.079-4.56,0.195
				L33.003-0.619z"/>
			<path fill="#009640" d="M29.875,0.511c1.707,0.008,7.644-0.83,7.644-0.83l-4.13,0.912c-1.788-0.137-3.138-0.463-4.945-0.471
				L29.875,0.511z"/>
			<path fill="#009640" d="M17.682,1.69c1.534-0.873,8.573-4.93,8.573-4.93l-4.998,2.525c-2.022,1.084-2.705,2.551-4.328,3.475
				L17.682,1.69z"/>
			<path fill="#009640" d="M15.313,1.829c1.533-0.874,8.573-4.93,8.573-4.93l-4.999,2.525c-2.022,1.083-2.705,2.55-4.328,3.475
				L15.313,1.829z"/>
			<path fill="#009640" d="M19.669,3.057c1.452,0.17,9.72,0.986,9.72,0.986l-5.241-0.007c-1.871-0.181-4.067-1.279-5.603-1.459
				L19.669,3.057z"/>
			<path fill="#009640" d="M17.654,4.065c1.658,0.16,9.295,0.937,9.295,0.937l-5.242-0.249C19.556,4.6,18.268,3.61,16.512,3.44
				L17.654,4.065z"/>
		</g>
		<g>
			<path fill="#009640" d="M-16.823,0.146C-9.209,6.411-2.933,16.13-2.933,16.13C-7.012,7.951-10.858,4.172-17.184-1.957
				L-16.823,0.146z"/>
			<path fill="#009640" d="M-12.52,5.146c0.525,1.819,3.334,9.083,3.334,9.083l-2.402-4.317c-0.747-2.303-0.128-4.646-0.684-6.572
				L-12.52,5.146z"/>
			<path fill="#009640" d="M-9.625,9.226c0.526,1.82,2.62,7.842,2.62,7.842l-0.904-3.041c-0.317-2.001-0.91-4.681-1.466-6.607
				L-9.625,9.226z"/>
			<path fill="#009640" d="M-6.292,12.74c0.347,1.106,3.232,5.044,3.232,5.044l-2.078-2.135c-0.193-1.22-0.574-2.851-0.942-4.021
				L-6.292,12.74z"/>
			<path fill="#009640" d="M-3.331,16.218c0.621,0.89,2.957,4.768,2.957,4.768l-1.453-2.719c-0.411-1.018-1.138-2.355-1.795-3.298
				L-3.331,16.218z"/>
			<path fill="#009640" d="M-8.131,10.474c0.525,1.819,2.619,7.841,2.619,7.841l-1.532-3.82c-0.317-2-0.283-3.9-0.839-5.827
				L-8.131,10.474z"/>
			<path fill="#009640" d="M-7.835,4.678C-6.617,5.212-2.339,6.66-2.339,6.66l-2.893-1.387c-1.532-0.735-4.224,0.143-5.513-0.423
				L-7.835,4.678z"/>
			<path fill="#009640" d="M-5.318,7.132c1.641,0.8,5.428,3.405,5.428,3.405l-2.739-1.363C-4.47,8.566-6.913,7.576-8.65,6.73
				L-5.318,7.132z"/>
			<path fill="#009640" d="M-4.5,12.213c0.928,0.638,3.81,4.58,3.81,4.58l-1.429-2.657c-1.073-0.511-2.477-1.319-3.458-1.994
				L-4.5,12.213z"/>
			<path fill="#009640" d="M-6.085,9.428c1.359,0.633,5.4,4.06,5.4,4.06l-2.551-2.852c-1.524-0.479-2.852-0.523-4.29-1.192
				L-6.085,9.428z"/>
			<path fill="#009640" d="M-14.813,3.16c0.525,1.82,2.898,10.24,2.898,10.24l-1.965-5.475c-0.746-2.302-0.128-4.646-0.684-6.572
				L-14.813,3.16z"/>
			<path fill="#009640" d="M-16.581,2.071c0.525,1.82,2.898,10.24,2.898,10.24l-1.965-5.475c-0.747-2.302-0.128-4.645-0.685-6.572
				L-16.581,2.071z"/>
			<path fill="#009640" d="M-12.158,1.965c1.284,0.306,8.479,2.256,8.479,2.256l-4.157-1.964c-1.625-0.445-4.232,0.29-5.592-0.033
				L-12.158,1.965z"/>
			<path fill="#009640" d="M-12.96-0.229c1.441,0.396,8.104,2.166,8.104,2.166L-9.205,0.32c-1.826-0.593-3.628,0.33-5.152-0.09
				L-12.96-0.229z"/>
		</g>
		<g>
			<path fill="#009640" d="M-1.735,1.377c5.016,5.233,8.85,13.008,8.85,13.008C4.747,7.917,2.253,4.807-1.854-0.243L-1.735,1.377z"
				/>
			<path fill="#009640" d="M1.003,5.443c0.254,1.415,1.776,7.109,1.776,7.109l-1.427-3.43C0.972,7.327,1.569,5.584,1.3,4.086
				L1.003,5.443z"/>
			<path fill="#009640" d="M2.798,8.724c0.254,1.415,1.348,6.121,1.348,6.121l-0.443-2.367C3.61,10.939,3.365,8.864,3.096,7.366
				L2.798,8.724z"/>
			<path fill="#009640" d="M4.943,11.601c0.174,0.861,1.972,4.033,1.972,4.033l-1.341-1.751c-0.057-0.939-0.22-2.201-0.405-3.113
				L4.943,11.601z"/>
			<path fill="#009640" d="M6.825,14.427c0.384,0.715,1.793,3.807,1.793,3.807l-0.856-2.156c-0.226-0.799-0.655-1.86-1.062-2.617
				L6.825,14.427z"/>
			<path fill="#009640" d="M3.781,9.765c0.254,1.415,1.348,6.121,1.348,6.121L4.29,12.887c-0.093-1.539,0.057-2.981-0.212-4.479
				L3.781,9.765z"/>
			<path fill="#009640" d="M4.376,5.378c0.834,0.481,3.79,1.847,3.79,1.847L6.195,5.992C5.151,5.338,3.172,5.839,2.289,5.329
				L4.376,5.378z"/>
			<path fill="#009640" d="M6.01,7.399c1.118,0.709,3.647,2.924,3.647,2.924L7.792,9.117C6.52,8.542,4.843,7.639,3.659,6.888
				L6.01,7.399z"/>
			<path fill="#009640" d="M6.257,11.311c0.62,0.542,2.414,3.716,2.414,3.716L7.828,12.92c-0.731-0.455-1.679-1.155-2.335-1.729
				L6.257,11.311z"/>
			<path fill="#009640" d="M5.311,9.096c0.927,0.565,3.583,3.42,3.583,3.42l-1.631-2.326c-1.056-0.457-2-0.573-2.981-1.172
				L5.311,9.096z"/>
			<path fill="#009640" d="M-0.5,3.793c0.254,1.416,1.388,7.961,1.388,7.961l-1.039-4.281c-0.38-1.796,0.217-3.539-0.052-5.037
				L-0.5,3.793z"/>
			<path fill="#009640" d="M-1.69,2.856c0.253,1.415,1.388,7.961,1.388,7.961l-1.039-4.282c-0.38-1.795,0.216-3.538-0.052-5.036
				L-1.69,2.856z"/>
			<path fill="#009640" d="M1.472,3.049c0.896,0.312,5.9,2.239,5.9,2.239L4.537,3.539c-1.13-0.44-3.039-0.042-3.988-0.372
				L1.472,3.049z"/>
			<path fill="#009640" d="M1.047,1.333C2.048,1.724,6.685,3.48,6.685,3.48L3.688,1.981c-1.263-0.563-2.609,0.026-3.67-0.387
				L1.047,1.333z"/>
		</g>
		<g>
			<path fill="#009640" d="M10.392,4.123c5.327,4.498,9.139,10.947,9.139,10.947c-2.24-5.312-4.853-7.954-9.162-12.247L10.392,4.123
				z"/>
			<path fill="#009640" d="M13.217,7.543c0.191,1.146,1.526,5.786,1.526,5.786l-1.382-2.828c-0.307-1.457,0.489-2.81,0.286-4.022
				L13.217,7.543z"/>
			<path fill="#009640" d="M15.027,10.275c0.191,1.146,1.108,4.971,1.108,4.971l-0.34-1.917c0-1.234-0.136-2.904-0.338-4.117
				L15.027,10.275z"/>
			<path fill="#009640" d="M17.261,12.709c0.139,0.698,1.958,3.345,1.958,3.345l-1.399-1.483c0-0.752-0.099-1.771-0.246-2.51
				L17.261,12.709z"/>
			<path fill="#009640" d="M19.2,15.085c0.386,0.595,1.772,3.151,1.772,3.151l-0.822-1.774c-0.201-0.652-0.615-1.526-1.024-2.156
				L19.2,15.085z"/>
			<path fill="#009640" d="M16.07,11.17c0.191,1.145,1.108,4.97,1.108,4.97l-0.746-2.446c0-1.234,0.27-2.375,0.068-3.588
				L16.07,11.17z"/>
			<path fill="#009640" d="M17.046,7.708c0.912,0.438,4.169,1.718,4.169,1.718l-2.15-1.11c-1.139-0.589-3.417-0.316-4.382-0.78
				L17.046,7.708z"/>
			<path fill="#009640" d="M18.758,9.426c1.219,0.638,3.934,2.567,3.934,2.567l-2.03-1.082c-1.404-0.541-3.243-1.369-4.533-2.045
				L18.758,9.426z"/>
			<path fill="#009640" d="M18.77,12.563c0.665,0.473,2.481,3.12,2.481,3.12l-0.811-1.735c-0.798-0.41-1.825-1.03-2.529-1.53
				L18.77,12.563z"/>
			<path fill="#009640" d="M17.849,10.734c1.012,0.511,3.828,2.959,3.828,2.959l-1.689-1.961c-1.166-0.433-2.228-0.586-3.3-1.126
				L17.849,10.734z"/>
			<path fill="#009640" d="M11.625,6.13c0.191,1.146,1.027,6.44,1.027,6.44l-0.884-3.482c-0.307-1.457,0.489-2.81,0.288-4.021
				L11.625,6.13z"/>
			<path fill="#009640" d="M10.342,5.306c0.19,1.146,1.027,6.44,1.027,6.44l-0.884-3.482c-0.307-1.457,0.489-2.81,0.287-4.021
				L10.342,5.306z"/>
			<path fill="#009640" d="M13.914,5.663c0.995,0.307,6.534,2.167,6.534,2.167l-3.094-1.579c-1.251-0.423-3.442-0.229-4.495-0.553
				L13.914,5.663z"/>
			<path fill="#009640" d="M13.549,4.267c1.108,0.376,6.245,2.077,6.245,2.077L16.5,4.954c-1.394-0.53-2.96-0.146-4.134-0.545
				L13.549,4.267z"/>
		</g>
		<g>
			<path fill="#009640" d="M22.362,7.215c9.256,2.037,17.473,6.526,17.473,6.526C34.255,9.674,29.5,8.267,21.691,6.004L22.362,7.215
				z"/>
			<path fill="#009640" d="M27.781,9.267c0.817,0.997,4.87,4.805,4.87,4.805l-3.222-2.087c-1.125-1.242-0.74-2.838-1.606-3.893
				L27.781,9.267z"/>
			<path fill="#009640" d="M31.521,11.089c0.817,0.997,3.916,4.211,3.916,4.211l-1.395-1.66c-0.609-1.158-1.613-2.67-2.478-3.726
				L31.521,11.089z"/>
			<path fill="#009640" d="M35.671,12.457c0.528,0.599,4.237,2.336,4.237,2.336l-2.581-0.817c-0.371-0.707-1.004-1.622-1.563-2.256
				L35.671,12.457z"/>
			<path fill="#009640" d="M39.405,13.892c0.804,0.4,3.896,2.231,3.896,2.231l-1.962-1.328c-0.587-0.529-1.566-1.181-2.417-1.604
				L39.405,13.892z"/>
			<path fill="#009640" d="M33.338,11.5c0.817,0.997,3.915,4.211,3.915,4.211l-2.191-1.99c-0.609-1.159-0.816-2.34-1.681-3.396
				L33.338,11.5z"/>
			<path fill="#009640" d="M32.921,7.851c1.421,0.037,6.354-0.098,6.354-0.098l-3.388-0.16c-1.795-0.086-4.669,1.105-6.174,1.064
				L32.921,7.851z"/>
			<path fill="#009640" d="M36.029,8.761c1.925,0.099,6.463,0.797,6.463,0.797l-3.215-0.183c-2.121,0.067-4.959,0.044-6.997-0.061
				L36.029,8.761z"/>
			<path fill="#009640" d="M37.593,11.701c1.112,0.17,4.817,1.91,4.817,1.91l-1.928-1.297c-1.256-0.057-2.918-0.218-4.095-0.398
				L37.593,11.701z"/>
			<path fill="#009640" d="M35.475,10.362c1.589,0.064,6.515,1.207,6.515,1.207l-3.199-1.146c-1.753,0.071-3.231,0.362-4.914,0.295
				L35.475,10.362z"/>
			<path fill="#009640" d="M24.982,8.593c0.817,0.997,4.534,5.624,4.534,5.624l-2.885-2.907c-1.125-1.241-0.741-2.837-1.605-3.892
				L24.982,8.593z"/>
			<path fill="#009640" d="M22.879,8.346c0.817,0.997,4.534,5.624,4.534,5.624l-2.885-2.906c-1.125-1.242-0.741-2.838-1.605-3.893
				L22.879,8.346z"/>
			<path fill="#009640" d="M27.773,7.216c1.465-0.12,9.7-0.646,9.7-0.646l-4.866-0.213c-1.861,0.115-4.66,1.196-6.21,1.324
				L27.773,7.216z"/>
			<path fill="#009640" d="M26.603,6.055c1.65-0.102,9.273-0.611,9.273-0.611L30.84,5.49c-2.102,0.074-3.983,1.076-5.729,1.185
				L26.603,6.055z"/>
		</g>
	</g>
</symbol>
<g id="Capa_1">
</g>
<g id="Fondo">
</g>
<g id="Guías">
</g>
<g id="Primer_plano">
	<g>
		<g>
			<path fill="#271F23" d="M13.941,58.988v5.447h-0.43c-0.14-1.045-0.389-1.877-0.749-2.497c-0.36-0.619-0.873-1.111-1.539-1.475
				c-0.666-0.364-1.355-0.546-2.067-0.546c-0.805,0-1.471,0.246-1.998,0.737c-0.527,0.492-0.79,1.051-0.79,1.679
				c0,0.48,0.166,0.917,0.499,1.312c0.48,0.581,1.622,1.355,3.427,2.323c1.471,0.79,2.476,1.396,3.014,1.818
				c0.538,0.422,0.953,0.919,1.243,1.492c0.29,0.573,0.435,1.173,0.435,1.8c0,1.192-0.463,2.22-1.388,3.084
				c-0.925,0.864-2.116,1.295-3.571,1.295c-0.457,0-0.887-0.035-1.289-0.105c-0.24-0.039-0.738-0.18-1.493-0.424
				c-0.755-0.244-1.233-0.366-1.434-0.366c-0.194,0-0.346,0.058-0.459,0.174c-0.112,0.116-0.196,0.356-0.25,0.72h-0.43v-5.401h0.43
				c0.201,1.131,0.472,1.976,0.813,2.538s0.861,1.028,1.562,1.4c0.701,0.372,1.469,0.557,2.306,0.557
				c0.968,0,1.732-0.255,2.294-0.767c0.561-0.511,0.842-1.115,0.842-1.812c0-0.387-0.106-0.778-0.319-1.173
				c-0.213-0.395-0.544-0.763-0.993-1.104c-0.302-0.232-1.127-0.726-2.474-1.481c-1.347-0.755-2.306-1.357-2.874-1.806
				c-0.569-0.449-1.001-0.945-1.295-1.487c-0.294-0.542-0.441-1.138-0.441-1.788c0-1.131,0.434-2.104,1.301-2.921
				c0.867-0.817,1.97-1.225,3.31-1.225c0.836,0,1.723,0.205,2.66,0.615c0.434,0.194,0.739,0.291,0.918,0.291
				c0.201,0,0.366-0.06,0.494-0.18c0.128-0.12,0.231-0.362,0.308-0.726H13.941z"/>
			<path fill="#271F23" d="M21.616,64.145c1.61,0,2.904,0.612,3.88,1.835c0.828,1.045,1.243,2.245,1.243,3.601
				c0,0.952-0.229,1.916-0.686,2.892c-0.457,0.975-1.086,1.711-1.887,2.207c-0.801,0.496-1.694,0.743-2.677,0.743
				c-1.603,0-2.877-0.639-3.821-1.916c-0.797-1.076-1.196-2.284-1.196-3.624c0-0.976,0.242-1.946,0.726-2.909
				c0.484-0.964,1.121-1.677,1.91-2.137C19.898,64.375,20.733,64.145,21.616,64.145z M21.256,64.9c-0.411,0-0.823,0.122-1.237,0.366
				c-0.415,0.244-0.749,0.672-1.005,1.283c-0.256,0.612-0.383,1.398-0.383,2.358c0,1.549,0.307,2.884,0.923,4.007
				c0.615,1.123,1.426,1.684,2.433,1.684c0.751,0,1.371-0.309,1.859-0.929c0.487-0.619,0.732-1.684,0.732-3.194
				c0-1.889-0.407-3.376-1.22-4.46C22.809,65.271,22.108,64.9,21.256,64.9z"/>
			<path fill="#271F23" d="M31.869,65.295v6.992c0,0.991,0.108,1.618,0.325,1.881c0.286,0.341,0.67,0.511,1.15,0.511h0.964v0.418
				h-6.353v-0.418h0.476c0.31,0,0.593-0.077,0.848-0.232c0.256-0.155,0.432-0.364,0.528-0.627c0.097-0.263,0.146-0.774,0.146-1.533
				v-6.992h-2.067v-0.836h2.067v-0.697c0-1.061,0.17-1.959,0.511-2.694c0.341-0.736,0.862-1.33,1.562-1.783
				c0.701-0.453,1.489-0.68,2.364-0.68c0.813,0,1.56,0.263,2.241,0.79c0.449,0.348,0.674,0.74,0.674,1.173
				c0,0.232-0.101,0.451-0.302,0.656s-0.418,0.308-0.65,0.308c-0.178,0-0.366-0.064-0.563-0.192
				c-0.198-0.128-0.44-0.403-0.726-0.825c-0.287-0.422-0.55-0.707-0.79-0.854c-0.24-0.147-0.507-0.22-0.801-0.22
				c-0.356,0-0.658,0.095-0.906,0.285c-0.248,0.19-0.426,0.484-0.534,0.882c-0.108,0.399-0.162,1.427-0.162,3.084v0.767h2.741v0.836
				H31.869z"/>
			<path fill="#271F23" d="M38.127,60.963v3.496h2.486v0.813h-2.486v6.899c0,0.69,0.099,1.154,0.296,1.394
				c0.198,0.24,0.451,0.36,0.761,0.36c0.255,0,0.503-0.079,0.743-0.238c0.24-0.159,0.426-0.393,0.558-0.703h0.453
				c-0.271,0.759-0.655,1.33-1.15,1.713c-0.496,0.384-1.007,0.575-1.533,0.575c-0.356,0-0.705-0.099-1.045-0.296
				c-0.341-0.198-0.593-0.48-0.755-0.848c-0.163-0.368-0.244-0.935-0.244-1.701v-7.155h-1.684v-0.383
				c0.426-0.17,0.862-0.459,1.307-0.865c0.445-0.407,0.842-0.888,1.19-1.446c0.178-0.294,0.426-0.832,0.743-1.614H38.127z"/>
			<path fill="#271F23" d="M40.46,64.458h4.46v0.43c-0.411,0.031-0.68,0.105-0.807,0.221c-0.128,0.116-0.192,0.283-0.192,0.5
				c0,0.24,0.066,0.53,0.198,0.871l2.276,6.121l2.288-4.982l-0.604-1.568c-0.186-0.464-0.43-0.786-0.732-0.964
				c-0.171-0.108-0.488-0.174-0.953-0.198v-0.43h5.064v0.43c-0.557,0.023-0.952,0.124-1.185,0.302
				c-0.155,0.124-0.232,0.321-0.232,0.592c0,0.155,0.031,0.313,0.093,0.476l2.416,6.109l2.241-5.889
				c0.155-0.418,0.232-0.751,0.232-0.999c0-0.147-0.075-0.279-0.226-0.395c-0.151-0.116-0.447-0.182-0.889-0.198v-0.43h3.357v0.43
				c-0.674,0.101-1.169,0.558-1.487,1.371l-3.554,9.164h-0.476l-2.66-6.795l-3.101,6.795h-0.43l-3.415-8.943
				c-0.225-0.565-0.445-0.947-0.662-1.144c-0.217-0.198-0.558-0.346-1.022-0.447V64.458z"/>
			<path fill="#271F23" d="M63.663,73.565c-1.092,0.844-1.777,1.332-2.056,1.463c-0.418,0.194-0.864,0.29-1.335,0.29
				c-0.736,0-1.342-0.251-1.818-0.755c-0.476-0.503-0.714-1.165-0.714-1.986c0-0.518,0.116-0.968,0.348-1.347
				c0.318-0.527,0.869-1.022,1.655-1.487c0.786-0.465,2.093-1.03,3.92-1.696V67.63c0-1.061-0.168-1.789-0.505-2.184
				s-0.827-0.593-1.469-0.593c-0.488,0-0.875,0.132-1.161,0.395c-0.294,0.263-0.441,0.566-0.441,0.906l0.023,0.674
				c0,0.356-0.091,0.631-0.273,0.824c-0.182,0.194-0.42,0.291-0.714,0.291c-0.286,0-0.521-0.101-0.702-0.302
				c-0.182-0.202-0.273-0.476-0.273-0.825c0-0.666,0.341-1.278,1.022-1.835c0.682-0.558,1.638-0.836,2.869-0.836
				c0.945,0,1.719,0.159,2.323,0.476c0.457,0.24,0.794,0.615,1.011,1.127c0.14,0.333,0.209,1.015,0.209,2.044v3.612
				c0,1.015,0.019,1.636,0.058,1.864c0.039,0.229,0.103,0.382,0.192,0.459c0.089,0.078,0.192,0.116,0.308,0.116
				c0.124,0,0.232-0.027,0.325-0.081c0.163-0.1,0.476-0.383,0.941-0.848v0.651c-0.867,1.161-1.696,1.742-2.486,1.742
				c-0.379,0-0.682-0.131-0.906-0.395C63.787,74.649,63.671,74.2,63.663,73.565z M63.663,72.81v-4.054
				c-1.169,0.465-1.924,0.794-2.265,0.987c-0.612,0.341-1.05,0.697-1.313,1.069c-0.263,0.372-0.395,0.778-0.395,1.22
				c0,0.557,0.166,1.02,0.5,1.388c0.333,0.368,0.716,0.552,1.15,0.552C61.929,73.971,62.703,73.584,63.663,72.81z"/>
			<path fill="#271F23" d="M70.711,64.145v2.393c0.89-1.595,1.804-2.393,2.741-2.393c0.426,0,0.778,0.13,1.057,0.389
				s0.418,0.559,0.418,0.9c0,0.302-0.101,0.558-0.302,0.767c-0.202,0.209-0.441,0.314-0.72,0.314c-0.271,0-0.575-0.133-0.912-0.401
				c-0.337-0.267-0.587-0.401-0.749-0.401c-0.14,0-0.291,0.078-0.453,0.233c-0.348,0.318-0.708,0.84-1.08,1.568v5.099
				c0,0.589,0.074,1.034,0.221,1.336c0.101,0.209,0.279,0.383,0.534,0.523c0.255,0.139,0.623,0.209,1.103,0.209v0.418h-5.447v-0.418
				c0.542,0,0.945-0.085,1.208-0.255c0.194-0.124,0.329-0.322,0.407-0.593c0.039-0.131,0.058-0.507,0.058-1.127v-4.123
				c0-1.239-0.025-1.976-0.075-2.213c-0.051-0.236-0.144-0.408-0.279-0.517c-0.136-0.108-0.304-0.163-0.506-0.163
				c-0.24,0-0.511,0.058-0.813,0.174l-0.116-0.418l3.217-1.301H70.711z"/>
			<path fill="#271F23" d="M76.714,68.465c-0.008,1.58,0.375,2.819,1.15,3.717c0.774,0.898,1.684,1.347,2.729,1.347
				c0.697,0,1.303-0.192,1.818-0.575c0.515-0.383,0.947-1.04,1.295-1.969l0.36,0.233c-0.162,1.061-0.635,2.027-1.417,2.898
				c-0.782,0.871-1.762,1.307-2.939,1.307c-1.278,0-2.371-0.498-3.281-1.493c-0.91-0.995-1.365-2.332-1.365-4.013
				c0-1.82,0.466-3.238,1.4-4.257c0.933-1.018,2.104-1.527,3.514-1.527c1.192,0,2.172,0.393,2.938,1.179
				c0.767,0.786,1.15,1.837,1.15,3.153H76.714z M76.714,67.792h4.924c-0.038-0.681-0.12-1.161-0.244-1.44
				c-0.194-0.434-0.482-0.774-0.865-1.022c-0.383-0.248-0.784-0.372-1.202-0.372c-0.643,0-1.218,0.25-1.725,0.749
				C77.095,66.207,76.799,66.902,76.714,67.792z"/>
			<path fill="#271F23" d="M96.837,74.668v0.43h-6.748v-0.43h0.557c0.651,0,1.123-0.19,1.417-0.569
				c0.186-0.247,0.279-0.844,0.279-1.788V62.136c0-0.797-0.051-1.324-0.151-1.58c-0.077-0.193-0.236-0.36-0.476-0.5
				c-0.341-0.186-0.697-0.279-1.068-0.279h-0.557v-0.43h6.748v0.43h-0.569c-0.643,0-1.111,0.19-1.405,0.569
				c-0.194,0.248-0.291,0.844-0.291,1.788V72.31c0,0.797,0.051,1.324,0.151,1.58c0.077,0.194,0.24,0.36,0.488,0.5
				c0.333,0.186,0.685,0.279,1.057,0.279H96.837z"/>
			<path fill="#271F23" d="M100.667,66.398c1.247-1.502,2.435-2.253,3.566-2.253c0.581,0,1.08,0.145,1.498,0.436
				c0.418,0.29,0.751,0.769,0.999,1.434c0.17,0.464,0.256,1.177,0.256,2.137v4.541c0,0.674,0.054,1.131,0.162,1.371
				c0.085,0.194,0.223,0.344,0.413,0.453c0.19,0.109,0.54,0.163,1.051,0.163v0.418h-5.261v-0.418h0.22
				c0.496,0,0.842-0.075,1.04-0.227c0.198-0.151,0.335-0.374,0.413-0.668c0.031-0.116,0.047-0.48,0.047-1.092v-4.355
				c0-0.968-0.126-1.671-0.378-2.108c-0.252-0.437-0.676-0.656-1.272-0.656c-0.922,0-1.839,0.503-2.753,1.51v5.61
				c0,0.72,0.042,1.165,0.128,1.336c0.108,0.225,0.257,0.389,0.447,0.494c0.19,0.105,0.575,0.157,1.155,0.157v0.418h-5.261v-0.418
				h0.233c0.542,0,0.908-0.138,1.097-0.412c0.19-0.275,0.285-0.799,0.285-1.574v-3.949c0-1.278-0.029-2.056-0.087-2.334
				c-0.058-0.279-0.147-0.469-0.267-0.569c-0.12-0.101-0.281-0.151-0.482-0.151c-0.217,0-0.476,0.058-0.778,0.174l-0.174-0.418
				l3.206-1.301h0.499V66.398z"/>
			<path fill="#271F23" d="M111.954,60.963v3.496h2.486v0.813h-2.486v6.899c0,0.69,0.099,1.154,0.296,1.394
				c0.198,0.24,0.451,0.36,0.761,0.36c0.255,0,0.503-0.079,0.743-0.238c0.24-0.159,0.426-0.393,0.558-0.703h0.453
				c-0.271,0.759-0.655,1.33-1.15,1.713c-0.496,0.384-1.007,0.575-1.533,0.575c-0.356,0-0.705-0.099-1.045-0.296
				c-0.341-0.198-0.593-0.48-0.755-0.848c-0.163-0.368-0.244-0.935-0.244-1.701v-7.155h-1.684v-0.383
				c0.426-0.17,0.862-0.459,1.307-0.865c0.445-0.407,0.842-0.888,1.19-1.446c0.178-0.294,0.426-0.832,0.743-1.614H111.954z"/>
			<path fill="#271F23" d="M116.668,68.465c-0.008,1.58,0.375,2.819,1.15,3.717c0.774,0.898,1.684,1.347,2.729,1.347
				c0.697,0,1.303-0.192,1.818-0.575c0.515-0.383,0.947-1.04,1.295-1.969l0.36,0.233c-0.162,1.061-0.635,2.027-1.417,2.898
				c-0.782,0.871-1.762,1.307-2.939,1.307c-1.278,0-2.371-0.498-3.281-1.493c-0.91-0.995-1.365-2.332-1.365-4.013
				c0-1.82,0.466-3.238,1.4-4.257c0.933-1.018,2.104-1.527,3.514-1.527c1.192,0,2.172,0.393,2.938,1.179
				c0.767,0.786,1.15,1.837,1.15,3.153H116.668z M116.668,67.792h4.924c-0.038-0.681-0.12-1.161-0.244-1.44
				c-0.194-0.434-0.482-0.774-0.865-1.022c-0.383-0.248-0.784-0.372-1.202-0.372c-0.643,0-1.218,0.25-1.725,0.749
				C117.049,66.207,116.753,66.902,116.668,67.792z"/>
			<path fill="#271F23" d="M127.688,71.218c-0.65-0.318-1.15-0.761-1.498-1.33c-0.348-0.569-0.523-1.198-0.523-1.887
				c0-1.053,0.397-1.959,1.191-2.718c0.793-0.759,1.81-1.138,3.049-1.138c1.014,0,1.893,0.248,2.636,0.743h2.253
				c0.333,0,0.527,0.01,0.581,0.029c0.054,0.019,0.093,0.052,0.116,0.099c0.047,0.07,0.07,0.194,0.07,0.372
				c0,0.202-0.02,0.341-0.058,0.418c-0.023,0.039-0.064,0.07-0.122,0.093c-0.058,0.023-0.254,0.035-0.587,0.035h-1.382
				c0.433,0.557,0.65,1.27,0.65,2.137c0,0.991-0.379,1.839-1.138,2.544c-0.759,0.705-1.777,1.057-3.054,1.057
				c-0.527,0-1.065-0.077-1.614-0.233c-0.341,0.294-0.571,0.552-0.691,0.773c-0.12,0.22-0.18,0.409-0.18,0.563
				c0,0.131,0.064,0.259,0.192,0.383c0.128,0.124,0.377,0.213,0.749,0.267c0.216,0.031,0.759,0.058,1.626,0.081
				c1.595,0.039,2.629,0.093,3.101,0.163c0.72,0.101,1.295,0.368,1.725,0.801c0.43,0.433,0.645,0.968,0.645,1.603
				c0,0.875-0.411,1.695-1.231,2.462c-1.208,1.131-2.784,1.696-4.727,1.696c-1.495,0-2.757-0.337-3.787-1.01
				c-0.581-0.387-0.871-0.79-0.871-1.208c0-0.186,0.042-0.372,0.128-0.558c0.131-0.287,0.403-0.685,0.813-1.196
				c0.054-0.07,0.449-0.488,1.185-1.254c-0.403-0.24-0.687-0.455-0.854-0.645c-0.167-0.19-0.25-0.405-0.25-0.645
				c0-0.271,0.11-0.588,0.331-0.952C126.381,72.399,126.89,71.884,127.688,71.218z M127.571,75.098
				c-0.364,0.395-0.639,0.763-0.825,1.103c-0.186,0.341-0.279,0.654-0.279,0.941c0,0.372,0.225,0.697,0.674,0.976
				c0.775,0.48,1.893,0.72,3.357,0.72c1.394,0,2.422-0.246,3.084-0.738c0.662-0.492,0.993-1.016,0.993-1.574
				c0-0.403-0.198-0.689-0.593-0.859c-0.402-0.17-1.2-0.271-2.393-0.302C129.848,75.318,128.508,75.229,127.571,75.098z
				 M129.709,64.703c-0.573,0-1.053,0.229-1.44,0.685c-0.387,0.457-0.581,1.158-0.581,2.102c0,1.224,0.263,2.172,0.79,2.846
				c0.403,0.511,0.914,0.767,1.533,0.767c0.589,0,1.072-0.221,1.452-0.662c0.379-0.441,0.569-1.135,0.569-2.079
				c0-1.231-0.267-2.195-0.801-2.892C130.835,64.958,130.328,64.703,129.709,64.703z"/>
			<path fill="#271F23" d="M139.253,64.145v2.393c0.89-1.595,1.804-2.393,2.741-2.393c0.426,0,0.778,0.13,1.057,0.389
				s0.418,0.559,0.418,0.9c0,0.302-0.101,0.558-0.302,0.767c-0.202,0.209-0.441,0.314-0.72,0.314c-0.271,0-0.575-0.133-0.912-0.401
				c-0.337-0.267-0.587-0.401-0.749-0.401c-0.14,0-0.291,0.078-0.453,0.233c-0.348,0.318-0.708,0.84-1.08,1.568v5.099
				c0,0.589,0.074,1.034,0.221,1.336c0.101,0.209,0.279,0.383,0.534,0.523c0.255,0.139,0.623,0.209,1.103,0.209v0.418h-5.447v-0.418
				c0.542,0,0.945-0.085,1.208-0.255c0.194-0.124,0.329-0.322,0.407-0.593c0.039-0.131,0.058-0.507,0.058-1.127v-4.123
				c0-1.239-0.025-1.976-0.075-2.213c-0.051-0.236-0.144-0.408-0.279-0.517c-0.136-0.108-0.304-0.163-0.506-0.163
				c-0.24,0-0.511,0.058-0.813,0.174l-0.116-0.418l3.217-1.301H139.253z"/>
			<path fill="#271F23" d="M149.495,73.565c-1.092,0.844-1.777,1.332-2.056,1.463c-0.418,0.194-0.864,0.29-1.335,0.29
				c-0.736,0-1.342-0.251-1.818-0.755c-0.476-0.503-0.714-1.165-0.714-1.986c0-0.518,0.116-0.968,0.348-1.347
				c0.318-0.527,0.869-1.022,1.655-1.487c0.786-0.465,2.093-1.03,3.92-1.696V67.63c0-1.061-0.168-1.789-0.505-2.184
				c-0.337-0.395-0.827-0.593-1.469-0.593c-0.488,0-0.875,0.132-1.161,0.395c-0.294,0.263-0.441,0.566-0.441,0.906l0.023,0.674
				c0,0.356-0.091,0.631-0.273,0.824c-0.182,0.194-0.42,0.291-0.714,0.291c-0.286,0-0.521-0.101-0.702-0.302
				c-0.182-0.202-0.273-0.476-0.273-0.825c0-0.666,0.341-1.278,1.022-1.835c0.682-0.558,1.638-0.836,2.869-0.836
				c0.945,0,1.719,0.159,2.323,0.476c0.457,0.24,0.794,0.615,1.011,1.127c0.14,0.333,0.209,1.015,0.209,2.044v3.612
				c0,1.015,0.019,1.636,0.058,1.864c0.039,0.229,0.103,0.382,0.192,0.459c0.089,0.078,0.192,0.116,0.308,0.116
				c0.124,0,0.232-0.027,0.325-0.081c0.163-0.1,0.476-0.383,0.941-0.848v0.651c-0.867,1.161-1.696,1.742-2.486,1.742
				c-0.379,0-0.682-0.131-0.906-0.395C149.619,74.649,149.502,74.2,149.495,73.565z M149.495,72.81v-4.054
				c-1.169,0.465-1.924,0.794-2.265,0.987c-0.612,0.341-1.05,0.697-1.313,1.069c-0.263,0.372-0.395,0.778-0.395,1.22
				c0,0.557,0.166,1.02,0.5,1.388c0.333,0.368,0.716,0.552,1.15,0.552C147.76,73.971,148.535,73.584,149.495,72.81z"/>
			<path fill="#271F23" d="M157.089,58.582v14.112c0,0.666,0.048,1.107,0.145,1.324c0.097,0.217,0.246,0.381,0.447,0.494
				c0.201,0.112,0.576,0.168,1.127,0.168v0.418h-5.215v-0.418c0.488,0,0.821-0.05,0.999-0.151c0.178-0.1,0.318-0.267,0.418-0.499
				c0.101-0.233,0.151-0.678,0.151-1.336V63.03c0-1.2-0.027-1.938-0.081-2.213c-0.054-0.275-0.142-0.463-0.261-0.563
				c-0.12-0.101-0.273-0.151-0.459-0.151c-0.202,0-0.457,0.062-0.767,0.186l-0.198-0.407l3.171-1.301H157.089z"/>
			<path fill="#271F23" d="M172.311,73.901c-0.519,0.542-1.026,0.931-1.522,1.167s-1.03,0.354-1.603,0.354
				c-1.161,0-2.176-0.486-3.043-1.458c-0.868-0.971-1.301-2.22-1.301-3.746s0.48-2.921,1.44-4.187s2.195-1.899,3.705-1.899
				c0.937,0,1.711,0.298,2.323,0.894v-1.963c0-1.216-0.029-1.963-0.087-2.242c-0.058-0.279-0.149-0.468-0.273-0.569
				c-0.124-0.101-0.279-0.151-0.464-0.151c-0.202,0-0.469,0.062-0.801,0.186l-0.151-0.407l3.171-1.301h0.523v12.3
				c0,1.247,0.029,2.008,0.087,2.282c0.058,0.275,0.151,0.467,0.279,0.575c0.128,0.109,0.277,0.163,0.447,0.163
				c0.209,0,0.488-0.066,0.836-0.198l0.127,0.407l-3.159,1.313h-0.534V73.901z M172.311,73.088v-5.482
				c-0.047-0.527-0.186-1.007-0.418-1.44c-0.233-0.433-0.54-0.761-0.924-0.981c-0.383-0.22-0.757-0.331-1.121-0.331
				c-0.682,0-1.289,0.306-1.824,0.918c-0.705,0.805-1.057,1.982-1.057,3.531c0,1.564,0.34,2.763,1.022,3.595s1.44,1.248,2.277,1.248
				C170.971,74.145,171.653,73.793,172.311,73.088z"/>
			<path fill="#271F23" d="M177.883,68.465c-0.008,1.58,0.375,2.819,1.15,3.717c0.774,0.898,1.684,1.347,2.729,1.347
				c0.697,0,1.303-0.192,1.818-0.575c0.515-0.383,0.947-1.04,1.295-1.969l0.36,0.233c-0.162,1.061-0.635,2.027-1.417,2.898
				s-1.762,1.307-2.939,1.307c-1.278,0-2.371-0.498-3.281-1.493c-0.91-0.995-1.365-2.332-1.365-4.013c0-1.82,0.466-3.238,1.4-4.257
				c0.933-1.018,2.104-1.527,3.514-1.527c1.192,0,2.172,0.393,2.938,1.179c0.767,0.786,1.15,1.837,1.15,3.153H177.883z
				 M177.883,67.792h4.924c-0.038-0.681-0.12-1.161-0.244-1.44c-0.194-0.434-0.482-0.774-0.865-1.022
				c-0.383-0.248-0.784-0.372-1.202-0.372c-0.643,0-1.218,0.25-1.725,0.749C178.265,66.207,177.968,66.902,177.883,67.792z"/>
			<path fill="#271F23" d="M205.266,58.988l0.407,4.971h-0.407c-0.411-1.239-0.941-2.172-1.591-2.799
				c-0.937-0.906-2.141-1.359-3.612-1.359c-2.006,0-3.531,0.794-4.576,2.381c-0.875,1.34-1.313,2.935-1.313,4.785
				c0,1.502,0.291,2.873,0.871,4.112c0.581,1.239,1.341,2.147,2.282,2.724c0.941,0.577,1.907,0.865,2.898,0.865
				c0.581,0,1.142-0.073,1.684-0.22s1.064-0.364,1.568-0.651v-4.553c0-0.79-0.06-1.307-0.18-1.551
				c-0.12-0.244-0.306-0.43-0.557-0.558c-0.252-0.127-0.695-0.192-1.33-0.192v-0.441h6.098v0.441h-0.29
				c-0.604,0-1.018,0.202-1.243,0.604c-0.155,0.287-0.232,0.852-0.232,1.696v4.82c-0.891,0.48-1.77,0.832-2.637,1.057
				s-1.831,0.337-2.892,0.337c-3.043,0-5.354-0.975-6.934-2.927c-1.185-1.463-1.777-3.151-1.777-5.064
				c0-1.386,0.333-2.714,0.999-3.984c0.79-1.51,1.874-2.672,3.252-3.485c1.154-0.674,2.516-1.01,4.088-1.01
				c0.573,0,1.094,0.047,1.562,0.14c0.468,0.093,1.133,0.298,1.992,0.615c0.434,0.163,0.724,0.244,0.871,0.244
				c0.147,0,0.273-0.067,0.378-0.203c0.105-0.136,0.168-0.401,0.192-0.796H205.266z"/>
			<path fill="#271F23" d="M209.782,68.465c-0.008,1.58,0.375,2.819,1.15,3.717c0.774,0.898,1.684,1.347,2.729,1.347
				c0.697,0,1.303-0.192,1.818-0.575c0.515-0.383,0.947-1.04,1.295-1.969l0.36,0.233c-0.162,1.061-0.635,2.027-1.417,2.898
				c-0.782,0.871-1.762,1.307-2.939,1.307c-1.278,0-2.371-0.498-3.281-1.493c-0.91-0.995-1.365-2.332-1.365-4.013
				c0-1.82,0.466-3.238,1.4-4.257c0.933-1.018,2.104-1.527,3.514-1.527c1.192,0,2.172,0.393,2.938,1.179
				c0.767,0.786,1.15,1.837,1.15,3.153H209.782z M209.782,67.792h4.924c-0.038-0.681-0.12-1.161-0.244-1.44
				c-0.194-0.434-0.482-0.774-0.865-1.022c-0.383-0.248-0.784-0.372-1.202-0.372c-0.643,0-1.218,0.25-1.725,0.749
				C210.163,66.207,209.867,66.902,209.782,67.792z"/>
			<path fill="#271F23" d="M224.833,64.145v3.624h-0.383c-0.295-1.138-0.672-1.912-1.133-2.323c-0.46-0.411-1.047-0.616-1.759-0.616
				c-0.543,0-0.98,0.144-1.313,0.43c-0.333,0.287-0.499,0.604-0.499,0.953c0,0.434,0.123,0.805,0.372,1.115
				c0.24,0.318,0.728,0.655,1.464,1.011l1.695,0.825c1.572,0.767,2.358,1.777,2.358,3.031c0,0.968-0.366,1.748-1.098,2.34
				c-0.731,0.592-1.551,0.888-2.457,0.888c-0.65,0-1.394-0.116-2.23-0.348c-0.255-0.077-0.464-0.116-0.627-0.116
				c-0.178,0-0.318,0.101-0.418,0.302h-0.383v-3.798h0.383c0.217,1.084,0.631,1.901,1.243,2.451c0.612,0.55,1.297,0.825,2.056,0.825
				c0.535,0,0.97-0.157,1.307-0.47c0.337-0.314,0.505-0.691,0.505-1.133c0-0.534-0.188-0.983-0.563-1.347
				c-0.376-0.364-1.125-0.825-2.247-1.382c-1.123-0.558-1.859-1.061-2.207-1.51c-0.348-0.441-0.523-0.999-0.523-1.672
				c0-0.875,0.3-1.607,0.9-2.195c0.6-0.589,1.376-0.883,2.33-0.883c0.418,0,0.924,0.089,1.521,0.267
				c0.395,0.116,0.658,0.174,0.79,0.174c0.124,0,0.221-0.027,0.29-0.081c0.07-0.054,0.152-0.174,0.245-0.36H224.833z"/>
			<path fill="#271F23" d="M229.708,60.963v3.496h2.486v0.813h-2.486v6.899c0,0.69,0.099,1.154,0.297,1.394
				c0.197,0.24,0.451,0.36,0.76,0.36c0.256,0,0.504-0.079,0.744-0.238c0.24-0.159,0.425-0.393,0.557-0.703h0.453
				c-0.271,0.759-0.654,1.33-1.15,1.713c-0.496,0.384-1.007,0.575-1.533,0.575c-0.357,0-0.705-0.099-1.046-0.296
				c-0.341-0.198-0.593-0.48-0.755-0.848c-0.162-0.368-0.244-0.935-0.244-1.701v-7.155h-1.684v-0.383
				c0.426-0.17,0.861-0.459,1.306-0.865c0.446-0.407,0.843-0.888,1.191-1.446c0.178-0.294,0.426-0.832,0.743-1.614H229.708z"/>
			<path fill="#271F23" d="M236.303,64.145v8.548c0,0.666,0.048,1.109,0.145,1.33c0.096,0.221,0.24,0.385,0.43,0.494
				c0.189,0.109,0.536,0.163,1.039,0.163v0.418h-5.168v-0.418c0.519,0,0.867-0.05,1.046-0.151c0.178-0.1,0.319-0.267,0.423-0.499
				c0.105-0.233,0.157-0.678,0.157-1.336v-4.1c0-1.154-0.035-1.901-0.104-2.241c-0.055-0.248-0.14-0.42-0.256-0.517
				c-0.116-0.097-0.275-0.145-0.476-0.145c-0.217,0-0.48,0.058-0.79,0.174l-0.163-0.418l3.206-1.301H236.303z M235.338,58.582
				c0.326,0,0.602,0.114,0.831,0.343s0.342,0.505,0.342,0.83c0,0.325-0.114,0.604-0.342,0.836s-0.505,0.348-0.831,0.348
				c-0.325,0-0.604-0.116-0.836-0.348c-0.232-0.232-0.348-0.511-0.348-0.836c0-0.325,0.114-0.602,0.342-0.83
				S235.005,58.582,235.338,58.582z"/>
			<path fill="#271F23" d="M243.85,64.145c1.61,0,2.903,0.612,3.879,1.835c0.828,1.045,1.243,2.245,1.243,3.601
				c0,0.952-0.229,1.916-0.686,2.892c-0.457,0.975-1.086,1.711-1.887,2.207c-0.801,0.496-1.693,0.743-2.677,0.743
				c-1.603,0-2.876-0.639-3.821-1.916c-0.798-1.076-1.196-2.284-1.196-3.624c0-0.976,0.241-1.946,0.726-2.909
				c0.483-0.964,1.121-1.677,1.911-2.137C242.131,64.375,242.967,64.145,243.85,64.145z M243.49,64.9
				c-0.411,0-0.823,0.122-1.237,0.366c-0.415,0.244-0.749,0.672-1.005,1.283c-0.256,0.612-0.383,1.398-0.383,2.358
				c0,1.549,0.308,2.884,0.923,4.007c0.616,1.123,1.427,1.684,2.433,1.684c0.751,0,1.37-0.309,1.859-0.929
				c0.488-0.619,0.731-1.684,0.731-3.194c0-1.889-0.407-3.376-1.22-4.46C245.042,65.271,244.342,64.9,243.49,64.9z M246.3,58.953
				l-3.426,4.007h-0.395l1.22-4.007H246.3z"/>
			<path fill="#271F23" d="M253.046,66.398c1.246-1.502,2.435-2.253,3.566-2.253c0.581,0,1.08,0.145,1.498,0.436
				c0.419,0.29,0.751,0.769,0.999,1.434c0.171,0.464,0.256,1.177,0.256,2.137v4.541c0,0.674,0.054,1.131,0.163,1.371
				c0.085,0.194,0.222,0.344,0.412,0.453c0.189,0.109,0.54,0.163,1.051,0.163v0.418h-5.261v-0.418h0.221
				c0.496,0,0.842-0.075,1.04-0.227c0.197-0.151,0.334-0.374,0.412-0.668c0.03-0.116,0.047-0.48,0.047-1.092v-4.355
				c0-0.968-0.126-1.671-0.378-2.108s-0.676-0.656-1.272-0.656c-0.922,0-1.839,0.503-2.753,1.51v5.61
				c0,0.72,0.042,1.165,0.127,1.336c0.108,0.225,0.257,0.389,0.447,0.494c0.189,0.105,0.575,0.157,1.155,0.157v0.418h-5.261v-0.418
				h0.233c0.542,0,0.908-0.138,1.098-0.412c0.189-0.275,0.285-0.799,0.285-1.574v-3.949c0-1.278-0.03-2.056-0.087-2.334
				c-0.058-0.279-0.148-0.469-0.267-0.569c-0.12-0.101-0.281-0.151-0.482-0.151c-0.217,0-0.476,0.058-0.779,0.174l-0.174-0.418
				l3.206-1.301h0.5V66.398z"/>
			<path fill="#271F23" d="M270.824,60.208v6.226h3.461c0.898,0,1.498-0.136,1.8-0.407c0.403-0.356,0.627-0.983,0.674-1.882h0.43
				v5.482h-0.43c-0.108-0.767-0.217-1.258-0.326-1.475c-0.139-0.271-0.367-0.484-0.685-0.639c-0.318-0.155-0.806-0.233-1.463-0.233
				h-3.461v5.192c0,0.697,0.03,1.121,0.093,1.272c0.062,0.151,0.17,0.271,0.325,0.36c0.155,0.089,0.449,0.133,0.883,0.133h2.672
				c0.89,0,1.537-0.062,1.94-0.186c0.403-0.124,0.79-0.368,1.162-0.732c0.479-0.48,0.971-1.204,1.475-2.172h0.465l-1.359,3.949
				H266.34v-0.43h0.558c0.371,0,0.724-0.089,1.057-0.267c0.248-0.124,0.416-0.31,0.505-0.558c0.089-0.248,0.134-0.755,0.134-1.521
				V62.089c0-0.999-0.101-1.614-0.302-1.847c-0.279-0.309-0.743-0.465-1.394-0.465h-0.558v-0.43h12.138l0.174,3.45h-0.453
				c-0.163-0.829-0.342-1.398-0.54-1.707c-0.198-0.31-0.49-0.546-0.877-0.708c-0.309-0.116-0.856-0.174-1.638-0.174H270.824z"/>
			<path fill="#271F23" d="M283.689,66.41c0.775-0.775,1.232-1.22,1.37-1.336c0.349-0.294,0.724-0.523,1.127-0.685
				c0.403-0.163,0.801-0.244,1.196-0.244c0.665,0,1.239,0.194,1.718,0.581c0.48,0.387,0.802,0.949,0.965,1.684
				c0.797-0.929,1.471-1.539,2.021-1.829c0.55-0.291,1.115-0.436,1.696-0.436c0.565,0,1.066,0.145,1.504,0.436
				c0.437,0.29,0.784,0.765,1.039,1.423c0.171,0.449,0.256,1.154,0.256,2.114v4.576c0,0.666,0.051,1.123,0.151,1.371
				c0.078,0.17,0.221,0.316,0.43,0.435c0.209,0.12,0.55,0.18,1.022,0.18v0.418h-5.249v-0.418h0.22c0.457,0,0.813-0.089,1.069-0.267
				c0.178-0.124,0.305-0.322,0.383-0.593c0.03-0.131,0.047-0.507,0.047-1.127v-4.576c0-0.867-0.105-1.479-0.314-1.835
				c-0.301-0.496-0.786-0.743-1.451-0.743c-0.411,0-0.823,0.103-1.237,0.307c-0.415,0.205-0.916,0.587-1.504,1.144l-0.023,0.128
				l0.023,0.5v5.075c0,0.728,0.041,1.181,0.122,1.359c0.082,0.178,0.234,0.327,0.459,0.447c0.224,0.12,0.608,0.18,1.15,0.18v0.418
				h-5.377v-0.418c0.588,0,0.993-0.07,1.213-0.209c0.221-0.14,0.374-0.349,0.459-0.627c0.038-0.131,0.058-0.515,0.058-1.15v-4.576
				c0-0.867-0.128-1.49-0.383-1.87c-0.341-0.496-0.817-0.743-1.429-0.743c-0.418,0-0.832,0.112-1.243,0.337
				c-0.642,0.341-1.138,0.724-1.487,1.15v5.703c0,0.697,0.048,1.15,0.145,1.359c0.097,0.209,0.24,0.366,0.43,0.47
				c0.19,0.105,0.575,0.157,1.156,0.157v0.418h-5.261v-0.418c0.487,0,0.828-0.052,1.021-0.157c0.194-0.105,0.341-0.271,0.442-0.5
				c0.1-0.228,0.151-0.672,0.151-1.33v-4.065c0-1.169-0.034-1.924-0.104-2.265c-0.055-0.256-0.14-0.432-0.256-0.529
				c-0.116-0.097-0.275-0.145-0.476-0.145c-0.216,0-0.476,0.058-0.778,0.174l-0.175-0.418l3.206-1.301h0.5V66.41z"/>
			<path fill="#271F23" d="M297.671,65.516l3.275-1.324h0.441v2.486c0.55-0.937,1.102-1.593,1.656-1.969
				c0.553-0.375,1.136-0.563,1.748-0.563c1.068,0,1.959,0.418,2.671,1.254c0.876,1.022,1.313,2.354,1.313,3.995
				c0,1.835-0.527,3.353-1.58,4.553c-0.867,0.983-1.959,1.475-3.275,1.475c-0.572,0-1.068-0.081-1.487-0.244
				c-0.31-0.116-0.658-0.348-1.046-0.697v3.24c0,0.728,0.045,1.191,0.134,1.388c0.089,0.197,0.244,0.354,0.464,0.47
				c0.221,0.116,0.621,0.174,1.203,0.174v0.43h-5.575v-0.43h0.29c0.426,0.008,0.79-0.073,1.091-0.244
				c0.148-0.085,0.261-0.223,0.343-0.412c0.081-0.19,0.122-0.672,0.122-1.446V67.595c0-0.689-0.031-1.127-0.093-1.313
				c-0.062-0.186-0.161-0.325-0.296-0.418c-0.136-0.093-0.32-0.14-0.552-0.14c-0.185,0-0.422,0.055-0.708,0.163L297.671,65.516z
				 M301.388,67.362v3.972c0,0.86,0.035,1.425,0.105,1.696c0.108,0.449,0.374,0.844,0.795,1.185
				c0.422,0.341,0.954,0.511,1.597,0.511c0.774,0,1.402-0.302,1.881-0.906c0.628-0.79,0.941-1.901,0.941-3.334
				c0-1.626-0.356-2.876-1.069-3.751c-0.496-0.604-1.084-0.906-1.766-0.906c-0.371,0-0.739,0.093-1.103,0.279
				C302.492,66.247,302.031,66.665,301.388,67.362z"/>
			<path fill="#271F23" d="M312.85,64.145v2.393c0.891-1.595,1.804-2.393,2.741-2.393c0.426,0,0.778,0.13,1.057,0.389
				s0.418,0.559,0.418,0.9c0,0.302-0.1,0.558-0.301,0.767c-0.201,0.209-0.442,0.314-0.72,0.314c-0.271,0-0.575-0.133-0.912-0.401
				c-0.337-0.267-0.587-0.401-0.75-0.401c-0.139,0-0.29,0.078-0.453,0.233c-0.348,0.318-0.708,0.84-1.08,1.568v5.099
				c0,0.589,0.074,1.034,0.22,1.336c0.101,0.209,0.279,0.383,0.535,0.523c0.255,0.139,0.623,0.209,1.103,0.209v0.418h-5.447v-0.418
				c0.542,0,0.945-0.085,1.208-0.255c0.193-0.124,0.329-0.322,0.407-0.593c0.038-0.131,0.058-0.507,0.058-1.127v-4.123
				c0-1.239-0.025-1.976-0.075-2.213c-0.051-0.236-0.144-0.408-0.279-0.517c-0.135-0.108-0.304-0.163-0.505-0.163
				c-0.24,0-0.511,0.058-0.813,0.174l-0.116-0.418l3.218-1.301H312.85z"/>
			<path fill="#271F23" d="M318.852,68.465c-0.008,1.58,0.375,2.819,1.15,3.717c0.774,0.898,1.684,1.347,2.729,1.347
				c0.697,0,1.303-0.192,1.818-0.575c0.515-0.383,0.947-1.04,1.295-1.969l0.36,0.233c-0.163,1.061-0.635,2.027-1.417,2.898
				c-0.783,0.871-1.762,1.307-2.939,1.307c-1.277,0-2.371-0.498-3.281-1.493c-0.91-0.995-1.365-2.332-1.365-4.013
				c0-1.82,0.467-3.238,1.399-4.257c0.933-1.018,2.105-1.527,3.514-1.527c1.192,0,2.172,0.393,2.939,1.179
				c0.767,0.786,1.15,1.837,1.15,3.153H318.852z M318.852,67.792h4.925c-0.039-0.681-0.12-1.161-0.244-1.44
				c-0.194-0.434-0.483-0.774-0.866-1.022c-0.383-0.248-0.783-0.372-1.202-0.372c-0.643,0-1.218,0.25-1.725,0.749
				C319.233,66.207,318.937,66.902,318.852,67.792z"/>
			<path fill="#271F23" d="M333.902,64.145v3.624h-0.383c-0.295-1.138-0.672-1.912-1.133-2.323c-0.46-0.411-1.047-0.616-1.759-0.616
				c-0.542,0-0.98,0.144-1.313,0.43c-0.334,0.287-0.5,0.604-0.5,0.953c0,0.434,0.123,0.805,0.371,1.115
				c0.241,0.318,0.728,0.655,1.464,1.011l1.695,0.825c1.572,0.767,2.358,1.777,2.358,3.031c0,0.968-0.366,1.748-1.098,2.34
				c-0.731,0.592-1.551,0.888-2.457,0.888c-0.65,0-1.394-0.116-2.23-0.348c-0.255-0.077-0.464-0.116-0.627-0.116
				c-0.178,0-0.318,0.101-0.418,0.302h-0.383v-3.798h0.383c0.216,1.084,0.631,1.901,1.242,2.451c0.612,0.55,1.297,0.825,2.056,0.825
				c0.535,0,0.97-0.157,1.307-0.47c0.337-0.314,0.505-0.691,0.505-1.133c0-0.534-0.188-0.983-0.563-1.347
				c-0.376-0.364-1.125-0.825-2.247-1.382c-1.123-0.558-1.859-1.061-2.207-1.51c-0.348-0.441-0.522-0.999-0.522-1.672
				c0-0.875,0.3-1.607,0.9-2.195s1.377-0.883,2.329-0.883c0.418,0,0.924,0.089,1.521,0.267c0.395,0.116,0.658,0.174,0.79,0.174
				c0.124,0,0.22-0.027,0.29-0.081c0.07-0.054,0.152-0.174,0.245-0.36H333.902z"/>
			<path fill="#271F23" d="M341.716,73.565c-1.092,0.844-1.777,1.332-2.056,1.463c-0.418,0.194-0.864,0.29-1.336,0.29
				c-0.735,0-1.341-0.251-1.818-0.755c-0.476-0.503-0.714-1.165-0.714-1.986c0-0.518,0.116-0.968,0.349-1.347
				c0.318-0.527,0.869-1.022,1.655-1.487s2.093-1.03,3.92-1.696V67.63c0-1.061-0.168-1.789-0.505-2.184
				c-0.337-0.395-0.827-0.593-1.469-0.593c-0.488,0-0.876,0.132-1.162,0.395c-0.294,0.263-0.441,0.566-0.441,0.906l0.023,0.674
				c0,0.356-0.091,0.631-0.273,0.824c-0.182,0.194-0.42,0.291-0.714,0.291c-0.286,0-0.52-0.101-0.702-0.302
				c-0.182-0.202-0.273-0.476-0.273-0.825c0-0.666,0.341-1.278,1.022-1.835c0.682-0.558,1.638-0.836,2.869-0.836
				c0.945,0,1.719,0.159,2.323,0.476c0.457,0.24,0.794,0.615,1.01,1.127c0.14,0.333,0.209,1.015,0.209,2.044v3.612
				c0,1.015,0.019,1.636,0.059,1.864c0.038,0.229,0.103,0.382,0.192,0.459c0.089,0.078,0.192,0.116,0.308,0.116
				c0.123,0,0.232-0.027,0.325-0.081c0.163-0.1,0.476-0.383,0.941-0.848v0.651c-0.867,1.161-1.695,1.742-2.485,1.742
				c-0.38,0-0.682-0.131-0.906-0.395C341.84,74.649,341.724,74.2,341.716,73.565z M341.716,72.81v-4.054
				c-1.169,0.465-1.924,0.794-2.265,0.987c-0.612,0.341-1.049,0.697-1.312,1.069c-0.264,0.372-0.395,0.778-0.395,1.22
				c0,0.557,0.167,1.02,0.5,1.388s0.716,0.552,1.15,0.552C339.982,73.971,340.756,73.584,341.716,72.81z"/>
			<path fill="#271F23" d="M348.763,64.145v2.393c0.891-1.595,1.804-2.393,2.741-2.393c0.426,0,0.778,0.13,1.057,0.389
				c0.279,0.259,0.418,0.559,0.418,0.9c0,0.302-0.1,0.558-0.301,0.767c-0.201,0.209-0.442,0.314-0.72,0.314
				c-0.271,0-0.575-0.133-0.912-0.401c-0.337-0.267-0.587-0.401-0.75-0.401c-0.14,0-0.29,0.078-0.453,0.233
				c-0.348,0.318-0.708,0.84-1.08,1.568v5.099c0,0.589,0.074,1.034,0.221,1.336c0.101,0.209,0.279,0.383,0.535,0.523
				c0.255,0.139,0.623,0.209,1.103,0.209v0.418h-5.447v-0.418c0.542,0,0.945-0.085,1.208-0.255c0.193-0.124,0.329-0.322,0.407-0.593
				c0.038-0.131,0.058-0.507,0.058-1.127v-4.123c0-1.239-0.025-1.976-0.075-2.213c-0.051-0.236-0.144-0.408-0.279-0.517
				c-0.136-0.108-0.304-0.163-0.505-0.163c-0.24,0-0.511,0.058-0.813,0.174l-0.116-0.418l3.218-1.301H348.763z"/>
			<path fill="#271F23" d="M356.647,64.145v8.548c0,0.666,0.048,1.109,0.145,1.33c0.096,0.221,0.24,0.385,0.43,0.494
				c0.189,0.109,0.536,0.163,1.039,0.163v0.418h-5.168v-0.418c0.519,0,0.867-0.05,1.046-0.151c0.178-0.1,0.319-0.267,0.423-0.499
				c0.105-0.233,0.157-0.678,0.157-1.336v-4.1c0-1.154-0.035-1.901-0.104-2.241c-0.055-0.248-0.139-0.42-0.256-0.517
				c-0.116-0.097-0.275-0.145-0.476-0.145c-0.217,0-0.48,0.058-0.79,0.174l-0.163-0.418l3.206-1.301H356.647z M355.683,58.582
				c0.326,0,0.602,0.114,0.831,0.343s0.342,0.505,0.342,0.83c0,0.325-0.114,0.604-0.342,0.836s-0.505,0.348-0.831,0.348
				c-0.325,0-0.604-0.116-0.836-0.348c-0.232-0.232-0.348-0.511-0.348-0.836c0-0.325,0.114-0.602,0.342-0.83
				S355.35,58.582,355.683,58.582z"/>
			<path fill="#271F23" d="M365.019,73.565c-1.092,0.844-1.777,1.332-2.056,1.463c-0.418,0.194-0.864,0.29-1.336,0.29
				c-0.735,0-1.341-0.251-1.818-0.755c-0.476-0.503-0.714-1.165-0.714-1.986c0-0.518,0.116-0.968,0.349-1.347
				c0.318-0.527,0.869-1.022,1.655-1.487s2.093-1.03,3.92-1.696V67.63c0-1.061-0.168-1.789-0.505-2.184s-0.827-0.593-1.469-0.593
				c-0.488,0-0.876,0.132-1.162,0.395c-0.294,0.263-0.441,0.566-0.441,0.906l0.023,0.674c0,0.356-0.091,0.631-0.273,0.824
				c-0.182,0.194-0.42,0.291-0.714,0.291c-0.286,0-0.52-0.101-0.702-0.302c-0.182-0.202-0.273-0.476-0.273-0.825
				c0-0.666,0.341-1.278,1.022-1.835c0.682-0.558,1.638-0.836,2.869-0.836c0.945,0,1.719,0.159,2.323,0.476
				c0.457,0.24,0.794,0.615,1.01,1.127c0.139,0.333,0.209,1.015,0.209,2.044v3.612c0,1.015,0.019,1.636,0.059,1.864
				c0.038,0.229,0.103,0.382,0.192,0.459c0.089,0.078,0.192,0.116,0.308,0.116c0.123,0,0.232-0.027,0.325-0.081
				c0.163-0.1,0.476-0.383,0.941-0.848v0.651c-0.867,1.161-1.695,1.742-2.485,1.742c-0.38,0-0.682-0.131-0.906-0.395
				C365.143,74.649,365.027,74.2,365.019,73.565z M365.019,72.81v-4.054c-1.169,0.465-1.924,0.794-2.265,0.987
				c-0.612,0.341-1.049,0.697-1.312,1.069c-0.264,0.372-0.395,0.778-0.395,1.22c0,0.557,0.167,1.02,0.5,1.388
				c0.333,0.368,0.716,0.552,1.15,0.552C363.285,73.971,364.059,73.584,365.019,72.81z"/>
			<path fill="#271F23" d="M372.612,58.582v14.112c0,0.666,0.048,1.107,0.145,1.324s0.246,0.381,0.447,0.494
				c0.201,0.112,0.577,0.168,1.127,0.168v0.418h-5.215v-0.418c0.488,0,0.82-0.05,0.999-0.151c0.178-0.1,0.318-0.267,0.418-0.499
				c0.101-0.233,0.151-0.678,0.151-1.336V63.03c0-1.2-0.027-1.938-0.081-2.213c-0.055-0.275-0.141-0.463-0.261-0.563
				c-0.12-0.101-0.273-0.151-0.459-0.151c-0.201,0-0.457,0.062-0.767,0.186l-0.197-0.407l3.17-1.301H372.612z"/>
		</g>
		<g>
			<g>
				<g>
					<path fill-rule="evenodd" clip-rule="evenodd" fill="#271F23" d="M23.609,8.505h0.345v2.414h-0.345
						c-2.558,0-2.902,0.141-3.381,0.276h-0.142c-0.551,0.134-0.896,0.275-1.035,0.477c-0.135,0.208-0.485,0.696-0.485,2.42
						l-0.14,7.514v12.411c0,7.033,0.074,7.033,0.074,7.033c0.067,2.205,0.349,2.689,0.417,2.823c0.275,0.208,0.62,0.417,1.171,0.555
						l0.142,0.07c0.479,0.139,0.823,0.205,3.381,0.205h0.345v2.417l-3.934-0.141l-4.835-0.068l-9.676,0.208v-2.417h0.35
						c1.657,0,2.766-0.067,3.386-0.275c0.688-0.138,0.964-0.347,1.104-0.481c0.137-0.208,0.412-0.692,0.412-2.417l0.208-7.513
						V21.605c0-7.035-0.141-7.035-0.141-7.035c-0.068-2.27-0.343-2.69-0.479-2.824c-0.213-0.208-0.558-0.417-1.104-0.551
						c-0.62-0.135-1.454-0.208-3.386-0.276h-0.35V8.847V8.505l9.191,0.208l7.389-0.141L23.609,8.505z"/>
					<path fill-rule="evenodd" clip-rule="evenodd" fill="#271F23" d="M34.107,8.847V8.505l3.803,0.068l2.486,0.067l5.179-0.134
						l0.068,0.068C50.067,12.778,50,12.85,50,12.85l7.18,6.69l10.504,9.44c8.008,7.244,8.075,7.17,8.075,7.17
						c1.939,1.657,2.699,2.208,2.699,2.208s0.208-1.311,0-18.337c-0.072-5.93-0.208-5.93-0.208-5.93
						c-0.067-1.792-0.343-2.346-0.417-2.554c-0.134-0.134-0.271-0.27-0.551-0.343c-0.69-0.208-1.523-0.344-3.173-0.344h-0.35V8.847
						l0.068-0.343l7.118,0.134l6.148-0.134v2.346h-0.344c-1.724,0-2.557,0.135-3.247,0.344c-0.275,0.073-0.416,0.208-0.551,0.417
						c-0.14,0.134-0.349,0.689-0.416,2.548l-0.203,5.863v12.545l0.129,14.552h-3.866h-0.136l-0.139-0.067
						c-1.106-1.106-1.106-1.038-1.106-1.038l-1.38-1.103c-4.485-3.445-4.283-3.724-4.283-3.724l-4.486-4.205
						C44.68,15.748,43.017,15.403,43.017,15.403s-0.202,1.375,0,19.238c0.074,5.997,0.21,5.997,0.21,5.997
						c0.072,1.785,0.343,2.34,0.41,2.484c0.141,0.198,0.282,0.34,0.557,0.407c0.756,0.208,1.246,0.343,3.59,0.343h0.35v2v0.347
						l-6.013-0.205l-7.117,0.205h-0.62v-2.347h0.345c2.214,0,2.564-0.135,3.182-0.343c0.136-0.067,0.136-0.067,0.136-0.067
						c0.276-0.068,0.417-0.208,0.553-0.34c0.068-0.145,0.343-0.7,0.417-2.558l0.208-5.923V13.403c0-0.693-0.074-0.895-0.141-0.969
						c-0.068-0.134-0.345-0.48-1.104-0.965c-0.417-0.275-0.834-0.41-1.315-0.483l-0.276-0.068l-2.282-0.138V8.847z"/>
					<path fill-rule="evenodd" clip-rule="evenodd" fill="#271F23" d="M97.252,10.796V8.572c3.657,0.138,5.935,0.204,9.389,0.204
						c13.611,0,22.865-0.138,27.632-0.272l0.491,0.272c-0.417,2.834-0.693,5.049-0.901,7.815h-2.554c0-1.109,0-3.805-0.693-4.221
						c-0.693-0.477-6.837-0.894-12.433-0.894c-3.042,0-5.669,0.208-7.116,0.208c-0.349,4.907-0.417,9.462-0.349,14.228
						c0,0.83,0,2.068,0,3.321c-0.068,5.177,0,8.907,0.141,13.953c3.873,0,18.928,0,20.585-0.699c0.897-0.414,1.59-2.898,1.59-3.792
						h2.764c-0.279,2.275-0.347,5.106-0.487,8.148l-0.545,0.275c-9.745-0.208-20.87-0.275-29.502-0.275
						c-1.73,0-3.866,0.067-6.426,0.275v-1.933c2.419-0.83,3.178-1.176,3.315-1.449c0.208-0.551,0.49-2.971,0.49-18.517
						c0-12.85-0.208-13.193-1.043-13.744C100.977,11.069,99.942,10.796,97.252,10.796z"/>
					<path fill-rule="evenodd" clip-rule="evenodd" fill="#271F23" d="M185.673,26.986c0,10.956-7.119,17.302-21.488,17.302
						c-2.693,0-4.491-0.07-6.699-0.486c-0.138-3.588-0.276-7.443-0.276-16.331c0-7.722,0.138-12.203,0.276-15.86
						c2.208-0.273,4.215-0.481,8.215-0.481C178.759,11.129,185.673,17.473,185.673,26.986z M143.67,10.713
						c2.764,0,3.799,0.138,4.421,0.554c0.826,0.552,1.034,0.969,1.034,13.786c0,15.652-0.275,18.201-0.557,18.684
						c-0.129,0.343-1.443,0.824-3.584,1.449v1.933c2.554-0.208,5.039-0.275,6.77-0.275c4.276,0,8.222,0.275,13.812,0.275
						c20.863,0,28.736-11.445,28.736-20.683c0-12.959-10.567-17.931-29.287-17.931c-4.42,0-8.084,0.276-11.882,0.276
						c-3.52,0-5.802,0-9.463-0.142V10.713z"/>
					<path fill-rule="evenodd" clip-rule="evenodd" fill="#271F23" d="M218.132,8.505h0.353v2.414h-0.353
						c-2.551,0-2.898,0.141-3.378,0.276h-0.134c-0.558,0.134-0.904,0.275-1.04,0.477c-0.141,0.208-0.486,0.696-0.486,2.42
						l-0.141,7.514v12.411c0,7.033,0.077,7.033,0.077,7.033c0.065,2.205,0.34,2.689,0.41,2.823c0.276,0.208,0.622,0.417,1.18,0.555
						l0.134,0.07c0.48,0.139,0.827,0.205,3.378,0.205h0.353v2.417l-3.936-0.141l-4.84-0.068l-9.674,0.208v-2.417h0.347
						c1.66,0,2.77-0.067,3.384-0.275c0.692-0.138,0.968-0.347,1.109-0.481c0.141-0.208,0.417-0.692,0.417-2.417l0.205-7.513V21.605
						c0-7.035-0.142-7.035-0.142-7.035c-0.064-2.27-0.34-2.69-0.48-2.824c-0.211-0.208-0.551-0.417-1.109-0.551
						c-0.615-0.135-1.449-0.208-3.384-0.276h-0.347V8.847V8.505l9.186,0.208l7.399-0.141L218.132,8.505z"/>
					<path fill-rule="evenodd" clip-rule="evenodd" fill="#271F23" d="M268.91,8.437h0.416l-0.077,0.41
						c-0.269,2.003-0.473,3.939-0.55,7.805v0.346h-2.963c-0.275-2.48-0.275-2.48-0.275-2.48c-0.283-1.939-0.417-2.007-0.417-2.007
						c-0.141-0.275-0.212-0.275-0.212-0.275c-0.417-0.134-0.417-0.134-0.417-0.134l-3.52-0.208l-4.762-0.139
						c-3.526-0.07-4.077,0-4.077,0c-0.205,1.654-0.282,3.869-0.282,6.561v15.61c0,7.113,0.077,7.113,0.077,7.113
						c0.064,2.208,0.34,2.699,0.41,2.764c0.275,0.278,0.622,0.486,1.108,0.625c0.622,0.135,1.725,0.208,3.796,0.275h0.346v2.417
						l-3.321-0.067l-5.25-0.141h-2.623l-7.045,0.208v-2.417h0.346c2.347,0,2.629-0.067,3.039-0.205l0.205-0.07
						c0.693-0.138,0.975-0.347,1.109-0.481c0.134-0.208,0.416-0.699,0.481-2.423l0.141-7.597V18.384l-0.064-2.417
						c-0.142-3.657-0.212-4.213-0.212-4.213s-0.551,0-4.974,0c-3.039,0-5.462,0.065-7.251,0.273
						c-0.691,0.074-0.833,0.208-0.904,0.208c-0.205,0.208-0.346,0.483-0.622,2.141l-0.409,2.622h-2.904v-0.346
						c0-4.417-0.141-6.282-0.347-7.805v-0.41l12.572,0.276l8.917,0.134l11.192-0.208L268.91,8.437z"/>
					<path fill-rule="evenodd" clip-rule="evenodd" fill="#271F23" d="M318.093,8.437h0.41l-0.065,0.41
						c-0.275,2.003-0.487,3.939-0.55,7.805v0.346h-2.975c-0.277-2.48-0.277-2.48-0.277-2.48c-0.275-1.939-0.417-2.007-0.417-2.007
						c-0.133-0.275-0.198-0.275-0.198-0.275c-0.417-0.134-0.417-0.134-0.417-0.134l-3.525-0.208l-4.765-0.139
						c-3.525-0.07-4.077,0-4.077,0c-0.21,1.654-0.275,3.869-0.275,6.561v15.61c0,7.113,0.065,7.113,0.065,7.113
						c0.077,2.208,0.346,2.699,0.417,2.764c0.281,0.278,0.621,0.486,1.108,0.625c0.623,0.135,1.725,0.208,3.796,0.275h0.346v2.417
						l-3.315-0.067l-5.25-0.141h-2.629l-7.046,0.208v-2.417h0.348c2.346,0,2.621-0.067,3.038-0.205l0.212-0.07
						c0.686-0.138,0.961-0.347,1.102-0.481c0.135-0.208,0.416-0.699,0.487-2.423l0.134-7.597V18.384l-0.069-2.417
						c-0.136-3.657-0.206-4.213-0.206-4.213s-0.55,0-4.975,0c-3.031,0-5.454,0.065-7.256,0.273
						c-0.685,0.074-0.827,0.208-0.892,0.208c-0.21,0.208-0.346,0.483-0.627,2.141l-0.41,2.622h-2.904v-0.346
						c0-4.417-0.141-6.282-0.346-7.805v-0.41l12.577,0.276l8.91,0.134l11.188-0.208L318.093,8.437z"/>
					<path fill-rule="evenodd" clip-rule="evenodd" fill="#271F23" d="M368.169,28.71c0,8.613-5.519,15.37-17.058,15.37
						c-10.706,0-18.854-6.891-18.854-18.475c0-8.827,7.456-14.476,17.406-14.476C357.329,11.129,368.169,14.992,368.169,28.71z
						 M323.895,27.534c0,8.962,5.946,19.584,25.21,19.584c16.104,0,27.431-9.039,27.431-20.274c0-12.545-11.404-18.34-25.623-18.34
						C335.713,8.505,323.895,15.611,323.895,27.534z"/>
				</g>
				<path fill-rule="evenodd" clip-rule="evenodd" fill="#D61520" d="M114.556,27.512c0-3.574,2.898-6.465,6.465-6.465
					c3.58,0,6.478,2.891,6.478,6.465c0,3.574-2.898,6.471-6.478,6.471C117.454,33.984,114.556,31.086,114.556,27.512z"/>
			</g>
		</g>
		<g>
			<path fill="#1B1414" d="M393.584,20.058c-1.263,1.269-2.79,1.903-4.582,1.903c-1.792,0-3.316-0.634-4.573-1.903
				c-1.251-1.263-1.876-2.793-1.876-4.591c0-1.78,0.632-3.301,1.895-4.565c1.257-1.257,2.775-1.886,4.555-1.886
				c1.792,0,3.319,0.629,4.582,1.886c1.263,1.257,1.895,2.779,1.895,4.565C395.478,17.259,394.847,18.789,393.584,20.058z
				 M385.072,11.528c-1.082,1.087-1.622,2.4-1.622,3.939c0,1.551,0.537,2.872,1.612,3.965c1.081,1.093,2.394,1.639,3.939,1.639
				c1.545,0,2.858-0.546,3.939-1.639c1.081-1.092,1.622-2.414,1.622-3.965c0-1.539-0.541-2.852-1.622-3.939
				c-1.087-1.092-2.4-1.639-3.939-1.639C387.469,9.889,386.159,10.436,385.072,11.528z M388.878,11.898
				c0.881,0,1.527,0.085,1.939,0.256c0.734,0.305,1.101,0.904,1.101,1.797c0,0.634-0.232,1.102-0.696,1.401
				c-0.247,0.159-0.59,0.273-1.031,0.344c0.558,0.088,0.966,0.32,1.225,0.696c0.258,0.376,0.388,0.743,0.388,1.101v0.52
				c0,0.164,0.006,0.341,0.018,0.528c0.012,0.188,0.032,0.312,0.062,0.37L391.927,19h-1.172c-0.006-0.024-0.012-0.047-0.017-0.07
				c-0.007-0.024-0.012-0.05-0.018-0.079l-0.026-0.229v-0.564c0-0.822-0.224-1.366-0.67-1.63c-0.264-0.153-0.728-0.229-1.392-0.229
				h-0.987V19h-1.251v-7.102H388.878z M390.223,13.017c-0.314-0.176-0.818-0.265-1.511-0.265h-1.066v2.573h1.128
				c0.528,0,0.925-0.053,1.189-0.159c0.488-0.194,0.732-0.564,0.732-1.11C390.694,13.54,390.536,13.193,390.223,13.017z"/>
		</g>
	</g>
</g>
<g id="Foreground">
</g>
</svg>
